<?xml version="1.0" encoding="UTF-8"?>
<svg width="50px" height="50px" viewBox="0 0 50 50" version="1.1" xmlns="http://www.w3.org/2000/svg" xmlns:xlink="http://www.w3.org/1999/xlink">
    <!-- Generator: Sketch 48.2 (47327) - http://www.bohemiancoding.com/sketch -->
    <title>android</title>
    <desc>Created with Sketch.</desc>
    <defs></defs>
    <g id="Symbols" stroke="none" stroke-width="1" fill="none" fill-rule="evenodd">
        <g id="android">
            <g>
                <rect id="Rectangle-2" x="0" y="0" width="50" height="50"></rect>
                <path d="M7.33541667,16.25125 C5.64666667,16.2504167 4.27791667,17.6225 4.2775,19.31 L4.27958333,32.1166667 C4.28,33.81 5.64958333,35.1766667 7.33875,35.17625 C9.02875,35.17625 10.3979167,33.8095833 10.39625,32.1170833 L10.39625,19.3083333 C10.3954167,17.62125 9.025,16.2504167 7.33541667,16.25125 Z M31.9991667,4.75041667 L34.13375,0.8525 C34.2475,0.64875 34.1729167,0.389583333 33.9666667,0.274166667 C33.7583333,0.16375 33.50125,0.23875 33.3908333,0.44375 L31.2345833,4.3825 C29.4204167,3.575 27.39,3.1225 25.2416667,3.12458333 C23.0991667,3.1225 21.0695833,3.57375 19.2629167,4.37666667 L17.1041667,0.447916667 C16.9920833,0.240833333 16.73375,0.165833333 16.53,0.27875 C16.3225,0.390833333 16.24625,0.650416667 16.3616667,0.85375 L18.4970833,4.74916667 C14.30125,6.91291667 11.46625,11.03375 11.4687483,15.765 L39.0179167,15.7616667 C39.01875,11.0320833 36.18875,6.91958333 31.9991667,4.75041667 Z M18.9758333,10.7741667 C18.3420833,10.7729167 17.8245833,10.2570833 17.8245833,9.61958333 C17.8245833,8.985 18.3404167,8.46333333 18.9770833,8.46375 C19.6158333,8.46333333 20.1325,8.985 20.1333333,9.61958333 C20.1333333,10.25625 19.6154167,10.77375 18.9758333,10.7741667 Z M31.52,10.7720833 C30.8833333,10.7729167 30.365,10.2566667 30.365,9.6175 C30.3675,8.98416667 30.8825,8.4625 31.5204167,8.46 C32.1541667,8.46208333 32.67375,8.98416667 32.6733333,9.61791667 C32.6745833,10.2554167 32.1566667,10.7725 31.52,10.7720833 Z M11.58125,16.8291667 L11.5858333,36.6770833 C11.5845833,38.4825 13.045,39.94 14.8491667,39.94 L17.07125,39.9408333 L17.07375,46.7175 C17.0733333,48.405 18.445,49.7766667 20.13,49.7766667 C21.82,49.7766667 23.1891667,48.40375 23.1895833,46.7154167 L23.1879167,39.9404167 L27.3166667,39.9391667 L27.3183333,46.7154167 C27.3183333,48.4016667 28.6904167,49.77625 30.3758333,49.7729167 C32.0658333,49.7741667 33.4358333,48.40125 33.4354167,46.7129167 L33.4333333,39.9383333 L35.6633333,39.9366667 C37.4633333,39.9375 38.9275,38.4783333 38.9283333,36.6725 L38.9245833,16.8245833 L11.58125,16.8291667 Z M46.2204167,19.3054167 C46.22,17.6158333 44.85125,16.2466667 43.1616667,16.2475 C41.4729167,16.2458333 40.1045833,17.6170833 40.1045833,19.3066667 L40.1070833,32.1141667 C40.1066667,33.805 41.475,35.1716667 43.165,35.1720833 C44.8541667,35.1716667 46.2220833,33.805 46.2225,32.1125 L46.2204167,19.3054167 Z" id="Shape" fill="#555555" fill-rule="nonzero"></path>
            </g>
        </g>
    </g>
</svg>