<?xml version="1.0" encoding="UTF-8"?>
<svg width="50px" height="50px" viewBox="0 0 50 50" version="1.1" xmlns="http://www.w3.org/2000/svg" xmlns:xlink="http://www.w3.org/1999/xlink">
    <!-- Generator: Sketch 48.2 (47327) - http://www.bohemiancoding.com/sketch -->
    <title>azure</title>
    <desc>Created with Sketch.</desc>
    <defs></defs>
    <g id="Symbols" stroke="none" stroke-width="1" fill="none" fill-rule="evenodd">
        <g id="azure">
            <g>
                <rect id="Rectangle-12" x="0" y="0" width="50" height="50"></rect>
                <path d="M29.6875,26.59375 C28.4375,26.59375 27.34375,27.3748047 26.71875,28.46875 L8.28125,28.46875 C5.15625,28.46875 2.65625,25.8125 2.65625,22.6875 C2.65625,19.5625 5.15625,16.90625 8.28125,16.90625 L10.9375,16.90625 C10.9375,16.28125 11.25,15.65625 11.40625,15.03125 C11.5625,14.875 11.5625,14.5625 11.71875,14.40625 C12.96875,12.0625 15.46875,10.5 18.28125,10.5 C20.78125,10.5 22.96875,11.75 24.375,13.625 C25.15625,13.3125 25.9375,13 26.875,12.84375 C25.15625,9.875 22.03125,8 18.28125,8 C14.0625,8 10.46875,10.65625 8.90625,14.40625 L8.28125,14.40625 C3.75,14.40625 0,18.15625 0,22.84375 C0,27.53125 3.75,31.125 8.28125,31.125 L26.875,31.125 C27.34375,32.21875 28.4375,33 29.84375,33 C31.5626953,33 32.96875,31.59375 32.96875,29.71875 C32.96875,27.84375 31.5625,26.59375 29.6875,26.59375 Z M40,20.1873047 C38.125,16.4373047 34.21875,13.7810547 29.84375,13.7810547 C24.375,13.7810547 19.84375,17.6873047 18.75,22.8435547 C16.09375,23.1560547 13.75,24.5623047 12.34375,26.5935547 L25.9375,26.5935547 C26.875,25.3435547 28.2814453,24.7185547 29.84375,24.7185547 C32.65625,24.7185547 34.84375,27.0623047 34.84375,29.8748047 C34.84375,32.6873047 32.5,35.0310547 29.84375,35.0310547 C28.28125,35.0310547 26.875,34.2498047 25.9375,33.1560547 L10.78125,33.1560547 C11.40625,37.5310547 15.15625,40.9685547 19.53125,40.9685547 L39.84375,40.9685547 C45.46875,40.9685547 50,36.4373047 50,30.6560547 C50,24.8748047 45.46875,20.3435547 40,20.1873047 Z" id="Shape" fill="#555555" fill-rule="nonzero"></path>
            </g>
        </g>
    </g>
</svg>