<?xml version="1.0" encoding="UTF-8"?>
<svg width="24px" height="24px" viewBox="0 0 24 24" version="1.1" xmlns="http://www.w3.org/2000/svg" xmlns:xlink="http://www.w3.org/1999/xlink">
    <!-- Generator: Sketch 48.2 (47327) - http://www.bohemiancoding.com/sketch -->
    <title>blog</title>
    <desc>Created with Sketch.</desc>
    <defs></defs>
    <g id="Symbols" stroke="none" stroke-width="1" fill="none" fill-rule="evenodd">
        <g id="blog">
            <g>
                <rect id="Rectangle-path" x="0" y="0" width="24" height="24"></rect>
                <g id="Group" transform="translate(1.000000, 2.000000)" fill="#ABABAB" fill-rule="nonzero">
                    <path d="M19,20.001 L1,20.001 C0.447,20.001 0,19.553 0,19.001 L0,1.001 C0,0.449 0.447,0.001 1,0.001 L17,0.001 C17.553,0.001 18,0.449 18,1.001 L18,4.001 L21,4.001 C21.553,4.001 22,4.449 22,5.001 L22,17.001 C22,17.266 21.895,17.521 21.707,17.708 L19.707,19.708 C19.52,19.896 19.266,20.001 19,20.001 Z M18,18.001 L18.586,18.001 L20,16.587 L20,6.001 L18,6.001 L18,18.001 Z M2,18.001 L16,18.001 L16,2.001 L2,2.001 L2,18.001 Z" id="Shape"></path>
                    <rect id="Rectangle-path" x="4" y="4.001" width="9" height="3"></rect>
                    <rect id="Rectangle-path" x="4" y="8.001" width="4" height="2"></rect>
                    <rect id="Rectangle-path" x="9" y="8.001" width="4" height="2"></rect>
                    <rect id="Rectangle-path" x="4" y="11.001" width="4" height="2"></rect>
                    <rect id="Rectangle-path" x="9" y="11.001" width="4" height="2"></rect>
                    <rect id="Rectangle-path" x="4" y="14.001" width="4" height="2"></rect>
                    <rect id="Rectangle-path" x="9" y="14.001" width="4" height="2"></rect>
                </g>
            </g>
        </g>
    </g>
</svg>