<?xml version="1.0" encoding="UTF-8"?>
<svg width="50px" height="50px" viewBox="0 0 50 50" version="1.1" xmlns="http://www.w3.org/2000/svg" xmlns:xlink="http://www.w3.org/1999/xlink">
    <!-- Generator: Sketch 48.2 (47327) - http://www.bohemiancoding.com/sketch -->
    <title>bootstrap</title>
    <desc>Created with Sketch.</desc>
    <defs></defs>
    <g id="Symbols" stroke="none" stroke-width="1" fill="none" fill-rule="evenodd">
        <g id="bootstrap">
            <g>
                <path d="M35.821,33.098 C35.276,34.207 34.602,35.062 33.8,35.664 C32.998,36.265 31.992,36.776 30.783,37.083 C29.574,37.39 28.092,37.6 26.338,37.6 L15.2,37.6 L15.2,10 L26.168,10 C28.273,10 29.962,10.244 31.234,10.801 C32.507,11.359 33.502,12.2 34.223,13.359 C34.944,14.518 35.304,15.722 35.304,16.987 C35.304,18.165 34.984,19.27 34.345,20.31 C33.706,21.351 32.741,22.188 31.451,22.827 C33.117,23.316 34.398,24.149 35.295,25.326 C36.19,26.504 36.638,27.895 36.638,29.499 C36.638,30.79 36.366,31.989 35.821,33.098 Z M50,6.65 C50,2.977 47.022,0 43.349,0 L6.65,0 C2.977,0 0,2.977 0,6.65 L0,43.35 C0,47.023 2.977,50 6.65,50 L43.349,50 C47.022,50 50,47.023 50,43.35 L50,6.65 Z M28.913,21.235 C29.84,20.959 30.538,20.479 31.009,19.84 C31.478,19.201 31.714,18.388 31.714,17.422 C31.714,16.508 31.494,15.697 31.055,15.001 C30.616,14.305 29.99,14.036 29.175,13.778 C28.36,13.522 26.964,13.6 24.983,13.6 L18.8,13.6 L18.8,21.6 L25.434,21.6 C27.051,21.6 28.21,21.448 28.913,21.235 Z M29.881,25.441 C28.947,25.134 27.602,25.2 25.848,25.2 L18.8,25.2 L18.8,34.4 L26.338,34.4 C27.515,34.4 28.342,34.274 28.818,34.186 C29.658,34.035 30.36,33.744 30.925,33.393 C31.488,33.043 31.951,32.511 32.315,31.841 C32.678,31.17 32.86,30.386 32.86,29.509 C32.86,28.481 32.597,27.693 32.07,26.934 C31.544,26.176 30.814,25.748 29.881,25.441 Z" id="Fill-24" fill="#555555"></path>
                <rect id="Rectangle-5" x="0" y="0" width="50" height="50"></rect>
            </g>
        </g>
    </g>
</svg>