<?xml version="1.0" encoding="UTF-8"?>
<svg width="50px" height="50px" viewBox="0 0 50 50" version="1.1" xmlns="http://www.w3.org/2000/svg" xmlns:xlink="http://www.w3.org/1999/xlink">
    <!-- Generator: Sketch 48.2 (47327) - http://www.bohemiancoding.com/sketch -->
    <title>c#</title>
    <desc>Created with Sketch.</desc>
    <defs></defs>
    <g id="Symbols" stroke="none" stroke-width="1" fill="none" fill-rule="evenodd">
        <g id="c#">
            <g>
                <rect id="Rectangle-2" x="0" y="0" width="50" height="50"></rect>
                <path d="M46.3467742,12.7016129 L46.4677419,12.6209677 C46.2258065,12.1774194 45.8629032,11.7741935 45.5,11.5725806 L26.0241935,0.362903226 C25.7016129,0.161290323 25.2580645,0.0806451613 24.7741935,0.0806451613 C24.2903226,0.0806451613 23.8467742,0.201612903 23.5241935,0.362903226 L4.16935484,11.6129032 C3.48387097,12.016129 3,13.0241935 3,13.7903226 L3,36.25 C3,36.6935484 3.08064516,37.1774194 3.36290323,37.6209677 L3.28225806,37.6612903 C3.48387097,37.983871 3.76612903,38.266129 4.0483871,38.4274194 L23.483871,49.6774194 C23.8064516,49.8790323 24.25,49.9596774 24.733871,49.9596774 C25.2177419,49.9596774 25.6612903,49.8387097 25.983871,49.6774194 L45.3387097,38.4274194 C46.0241935,38.0241935 46.5080645,37.016129 46.5080645,36.25 L46.5080645,13.75 C46.5483871,13.4274194 46.5080645,13.0645161 46.3467742,12.7016129 Z M24.7741935,40.9274194 C15.983871,40.9274194 8.84677419,33.7903226 8.84677419,25 C8.84677419,16.2096774 15.983871,9.07258065 24.7741935,9.07258065 C30.7016129,9.07258065 35.8629032,12.3387097 38.6048387,17.1370968 L33.3629032,20.1612903 C31.6693548,17.1370968 28.4435484,15.1209677 24.7741935,15.1209677 C19.3306452,15.1209677 14.8951613,19.5564516 14.8951613,25 C14.8951613,30.4435484 19.3306452,34.8790323 24.7741935,34.8790323 C28.4435484,34.8790323 31.6693548,32.8629032 33.3629032,29.8790323 L38.5645161,32.9435484 C35.8225806,37.7016129 30.6612903,40.9274194 24.7741935,40.9274194 Z M45.3387097,24.1935484 L44.0483871,24.1935484 L43.6854839,25.8064516 L45.3387097,25.8064516 L45.3387097,27.8225806 L43.3225806,27.8225806 L42.8387097,30.2419355 L40.8629032,30.2419355 L41.3467742,27.8225806 L39.8145161,27.8225806 L39.3306452,30.2419355 L37.3951613,30.2419355 L37.8790323,27.8225806 L36.8709677,27.8225806 L36.8709677,25.8064516 L38.2822581,25.8064516 L38.6451613,24.1935484 L36.8709677,24.1935484 L36.8709677,22.1774194 L39.0080645,22.1774194 L39.4919355,19.7580645 L41.4677419,19.7580645 L40.983871,22.1774194 L42.516129,22.1774194 L43,19.7580645 L44.9354839,19.7580645 L44.4516129,22.1774194 L45.3387097,22.1774194 L45.3387097,24.1935484 Z M40.2177419,25.8064516 L41.75,25.8064516 L42.1129032,24.1935484 L40.5806452,24.1935484 L40.2177419,25.8064516 Z" id="Shape" fill="#555555" fill-rule="nonzero"></path>
            </g>
        </g>
    </g>
</svg>