<?xml version="1.0" encoding="UTF-8"?>
<svg width="50px" height="50px" viewBox="0 0 50 50" version="1.1" xmlns="http://www.w3.org/2000/svg" xmlns:xlink="http://www.w3.org/1999/xlink">
    <!-- Generator: Sketch 48.2 (47327) - http://www.bohemiancoding.com/sketch -->
    <title>css3</title>
    <desc>Created with Sketch.</desc>
    <defs></defs>
    <g id="Symbols" stroke="none" stroke-width="1" fill="none" fill-rule="evenodd">
        <g id="css3">
            <g>
                <rect id="Rectangle-5" x="0" y="0" width="50" height="50"></rect>
                <path d="M3,0 L7.00715749,44.9865697 L24.9877573,50 L43.0185712,44.9682376 L47.0289169,0 L3,0 Z M38.7041518,10.3066243 L37.3702924,25.2931143 L37.3742777,25.3740146 L37.3686983,25.5601253 L37.3686983,25.5585312 L36.4210086,36.0373178 L36.3165953,36.9682695 L25.0144584,40.0942907 L25.0144584,40.0946893 L25.0056909,40.1022612 L13.7230817,36.958705 L12.9591115,28.2951946 L18.4918183,28.2951946 L18.8843643,32.7004774 L25.0160525,34.362322 L25.0144584,34.3655102 L25.0144584,34.3647131 L31.1688625,32.6793557 L31.8192535,25.5055275 L18.9537075,25.5055275 L18.8433164,24.2928194 L18.5918478,21.4517427 L18.4599364,19.9261934 L32.3082423,19.9261934 L32.8119764,14.3468592 L11.7197022,14.3468592 L11.6093111,13.1349482 L11.3582411,10.2930745 L11.2259312,8.76752509 L38.8360632,8.76752509 L38.7041518,10.3066243 Z" id="Shape" fill="#555555" fill-rule="nonzero"></path>
            </g>
        </g>
    </g>
</svg>