<?xml version="1.0" encoding="UTF-8"?>
<svg width="50px" height="50px" viewBox="0 0 50 50" version="1.1" xmlns="http://www.w3.org/2000/svg" xmlns:xlink="http://www.w3.org/1999/xlink">
    <!-- Generator: Sketch 48.2 (47327) - http://www.bohemiancoding.com/sketch -->
    <title>dnn</title>
    <desc>Created with Sketch.</desc>
    <defs></defs>
    <g id="Symbols" stroke="none" stroke-width="1" fill="none" fill-rule="evenodd">
        <g id="dnn">
            <g>
                <path d="M33.4750756,25.0107358 C33.4750756,29.6831844 29.6873946,33.4708655 25.014946,33.4708655 L16.5291343,33.4708655 L16.5291343,16.5249241 L33.4750756,16.5249241 L33.4750756,25.0107358 Z M25.0549426,0 L25.0547321,0 L25.052206,0 L25.0511535,0 L25.0503114,0 L0,0.00421017176 L0.00842034351,49.8947455 L25.0105253,49.8905353 L25.0589423,49.8905353 L25.1073593,49.8905353 L25.1115694,49.8901143 C27.894914,49.8835885 30.5713202,49.4221537 33.0696361,48.5748566 L33.0708991,48.5748566 L33.0708991,48.5746461 C42.9165963,45.2353484 50.0014733,35.9159227 49.9999998,24.9418995 C49.9981052,11.1662175 38.8299931,0.000210508588 25.0549426,0 Z" id="Fill-1" fill="#555555"></path>
                <rect id="Rectangle-11" x="0" y="0" width="50" height="50"></rect>
            </g>
        </g>
    </g>
</svg>