<?xml version="1.0" encoding="UTF-8"?>
<svg width="50px" height="50px" viewBox="0 0 50 50" version="1.1" xmlns="http://www.w3.org/2000/svg" xmlns:xlink="http://www.w3.org/1999/xlink">
    <!-- Generator: Sketch 48.2 (47327) - http://www.bohemiancoding.com/sketch -->
    <title>dotnet</title>
    <desc>Created with Sketch.</desc>
    <defs></defs>
    <g id="Symbols" stroke="none" stroke-width="1" fill="none" fill-rule="evenodd">
        <g id="dotnet">
            <g>
                <rect id="Rectangle-5" x="0" y="0" width="50" height="50"></rect>
                <path d="M32.1857143,30.0444444 C32.3757937,29.5555556 32.5912698,29.0742063 32.7519841,28.5757937 C33.6599206,25.7595238 34.559127,22.940873 35.452381,20.1198413 C35.7956349,19.0361111 36.1718254,17.9690476 36.8472222,17.0376984 C37.9154762,15.565873 39.4035714,14.7948413 41.1646825,14.5253968 C41.8555556,14.4198413 42.5607143,14.3710317 43.2599206,14.3642857 C45.35,14.3444444 47.440873,14.3583333 49.5313492,14.3603175 C49.6424603,14.3603175 49.7535714,14.3718254 49.9111111,14.3809524 C49.8599206,14.5015873 49.8321429,14.5892857 49.7876984,14.668254 C49.0119048,16.0547619 48.2511905,17.4496032 47.452381,18.8222222 C46.0615079,21.2119048 44.668254,23.6007937 43.2337302,25.9642857 C42.3134921,27.4797619 41.3154762,28.9484127 40.1833333,30.3190476 C39.3480159,31.3301587 38.4686508,32.2968254 37.347619,33.0055556 C36.5837302,33.4884921 35.7678571,33.7710317 34.8416667,33.7662698 C31.556746,33.7484127 28.2718254,33.7615079 24.9869048,33.756746 C24.0103175,33.7551587 23.1742063,33.3833333 22.4646825,32.7238095 C21.447619,31.7789683 20.8404762,30.5761905 20.3436508,29.3079365 C19.4373016,26.9924603 18.9297619,24.5654762 18.3472222,22.1595238 C18.0742063,21.0333333 17.7638889,19.915873 17.468254,18.7952381 C17.4492063,18.722619 17.4119048,18.6547619 17.3690476,18.5503968 L17.1400794,18.7654762 C15.859127,20.0380952 14.7309524,21.4404762 13.7214286,22.9313492 C13.4464286,23.3376984 13.3539683,23.8734127 13.2003968,24.3563492 C12.6353175,26.1301587 12.1202381,27.9210317 11.5083333,29.6781746 C10.9222222,31.3615079 9.87142857,32.7003968 8.22896825,33.4916667 C7.26865079,33.9539683 6.24325397,34.2039683 5.17777778,34.2277778 C3.5984127,34.2626984 2.01825397,34.2666667 0.438492063,34.2809524 C0.0607142857,34.2845238 0.0432539683,34.2535714 0.141666667,33.8880952 C0.819047619,31.3730159 1.67738095,28.9222222 2.75277778,26.55 C3.86150794,24.1027778 5.16746032,21.7690476 6.81269841,19.6376984 C7.93293651,18.1865079 9.1702381,16.847619 10.7186508,15.8353175 C11.5039683,15.3222222 12.3388889,14.9166667 13.2888889,14.8099206 C13.4452381,14.7920635 13.6035714,14.7809524 13.7607143,14.7809524 C17.125,14.7793651 20.4892857,14.8134921 23.8531746,14.7654762 C25.6575397,14.7396825 26.9638889,15.5015873 27.9420635,16.9539683 C28.5503968,17.8571429 28.9857143,18.843254 29.3519841,19.8619048 C30.0904762,21.9166667 30.5496032,24.0472222 31.068254,26.1626984 C31.3650794,27.3734127 31.6956349,28.5757937 32.0123016,29.781746 C32.0361111,29.8722222 32.0746032,29.9587302 32.106746,30.0468254 L32.1857143,30.0444444 Z" id="Shape" fill="#555555"></path>
            </g>
        </g>
    </g>
</svg>