<?xml version="1.0" encoding="UTF-8"?>
<svg width="24px" height="24px" viewBox="0 0 24 24" version="1.1" xmlns="http://www.w3.org/2000/svg" xmlns:xlink="http://www.w3.org/1999/xlink">
    <!-- Generator: Sketch 48.2 (47327) - http://www.bohemiancoding.com/sketch -->
    <title>github</title>
    <desc>Created with Sketch.</desc>
    <defs></defs>
    <g id="Symbols" stroke="none" stroke-width="1" fill="none" fill-rule="evenodd">
        <g id="github">
            <g>
                <rect id="Rectangle-path" x="0" y="0" width="24" height="24"></rect>
                <path d="M15.38,13.109 C14.662,13.109 14.08,13.916 14.08,14.908 C14.08,15.902 14.662,16.709 15.38,16.709 C16.098,16.709 16.68,15.902 16.68,14.908 C16.679,13.916 16.098,13.109 15.38,13.109 Z M19.906,8.426 C20.055,8.061 20.061,5.987 19.271,4 C19.271,4 17.46,4.199 14.72,6.08 C14.145,5.92 13.172,5.842 12.201,5.842 C11.228,5.842 10.256,5.92 9.681,6.08 C6.94,4.199 5.129,4 5.129,4 C4.34,5.987 4.348,8.061 4.495,8.426 C3.567,9.434 3,10.645 3,12.297 C3,19.483 8.963,19.598 10.467,19.598 C10.809,19.598 11.485,19.6 12.201,19.6 C12.916,19.6 13.593,19.598 13.933,19.598 C15.439,19.598 21.4,19.483 21.4,12.297 C21.4,10.645 20.834,9.434 19.906,8.426 Z M12.228,18.715 L12.172,18.715 C8.401,18.715 5.463,18.266 5.463,14.6 C5.463,13.721 5.773,12.907 6.51,12.231 C7.737,11.104 9.815,11.7 12.172,11.7 C12.182,11.7 12.192,11.7 12.201,11.7 C12.211,11.7 12.219,11.7 12.228,11.7 C14.585,11.7 16.664,11.104 17.892,12.231 C18.627,12.907 18.937,13.721 18.937,14.6 C18.937,18.266 16,18.715 12.228,18.715 Z M9.021,13.109 C8.303,13.109 7.721,13.916 7.721,14.908 C7.721,15.902 8.303,16.709 9.021,16.709 C9.74,16.709 10.322,15.902 10.322,14.908 C10.322,13.916 9.74,13.109 9.021,13.109 Z" id="Shape" fill="#ABABAB" fill-rule="nonzero"></path>
            </g>
        </g>
    </g>
</svg>