<?xml version="1.0" encoding="UTF-8"?>
<svg width="50px" height="50px" viewBox="0 0 50 50" version="1.1" xmlns="http://www.w3.org/2000/svg" xmlns:xlink="http://www.w3.org/1999/xlink">
    <!-- Generator: Sketch 48.2 (47327) - http://www.bohemiancoding.com/sketch -->
    <title>html5</title>
    <desc>Created with Sketch.</desc>
    <defs></defs>
    <g id="Symbols" stroke="none" stroke-width="1" fill="none" fill-rule="evenodd">
        <g id="html5">
            <g>
                <rect id="Rectangle-5" x="0" y="0" width="50" height="50"></rect>
                <path d="M3,0 L7.002,44.8372 L24.9604,49.7976 L42.9684,44.8428 L46.9744,0 L3,0 Z M38.6504,10.6156 L38.3996,13.4844 L38.2892,14.8 L17.2232,14.8 L17.726,20.4 L37.7884,20.4 L37.654,21.7884 L36.3608,36.236 L36.2656,37.144 L24.9872,40.2436 L24.9872,40.2444 L24.9736,40.2516 L13.7028,37.2824 L12.9376,28.8 L18.4636,28.8 L18.8552,33.1676 L24.97,34.8 L24.9872,34.8 L24.9872,34.5816 L31.1292,33.0316 L31.7708,26 L12.6916,26 L11.3384,10.7532 L11.2068,9.2 L38.7824,9.2 L38.6504,10.6156 Z" id="Shape" fill="#555555" fill-rule="nonzero"></path>
            </g>
        </g>
    </g>
</svg>