<?xml version="1.0" encoding="UTF-8"?>
<svg width="50px" height="50px" viewBox="0 0 50 50" version="1.1" xmlns="http://www.w3.org/2000/svg" xmlns:xlink="http://www.w3.org/1999/xlink">
    <!-- Generator: Sketch 48.2 (47327) - http://www.bohemiancoding.com/sketch -->
    <title>ios</title>
    <desc>Created with Sketch.</desc>
    <defs></defs>
    <g id="Symbols" stroke="none" stroke-width="1" fill="none" fill-rule="evenodd">
        <g id="ios">
            <g>
                <rect id="Rectangle-14" x="0" y="0" width="50" height="50"></rect>
                <path d="M1.7474221,11.5895629 C1.7474221,12.1397294 1.41241575,12.5467239 0.83771697,12.5467239 C0.359136464,12.5467239 0,12.1397294 0,11.5895629 C0,11.0627222 0.382864405,10.6319997 0.885575021,10.6319997 C1.41241575,10.6319997 1.7474221,11.0627222 1.7474221,11.5895629 Z M0.422679086,40.358686 L0.422679086,18.3520261 L1.32474301,18.3520261 L1.32474301,40.358686 L0.422679086,40.358686 Z M31.3281212,24.6789408 C31.3281212,35.7739652 25.1689108,40.8175603 18.4269582,40.8175603 C11.5398227,40.8175603 5.96255007,35.3621447 5.96255007,25.1378151 C5.96255007,14.6396088 11.7340701,9 18.9119734,9 C25.9442916,8.99919566 31.3281212,14.5467078 31.3281212,24.6789408 Z M6.87667905,24.9081769 C6.87667905,33.3207374 10.9538632,39.8559754 18.469588,39.8559754 C26.0375947,39.8559754 30.3781993,33.1196532 30.3781993,24.8124608 C30.3781993,17.1089233 26.9002461,10.0786159 18.9638531,10.0786159 C11.0274601,10.0786159 6.87667905,16.6979071 6.87667905,24.9081769 Z M34.6387723,37.974229 C36.1521323,38.9828676 38.7642167,39.9569197 41.0107299,39.9569197 C45.2745202,39.9569197 49.0665669,36.974036 49.0665669,32.5835626 C49.0665669,28.5091936 46.5405466,26.3833309 42.2518218,24.5570838 C38.4135257,22.922671 34.9625179,21.1487058 34.9625179,16.793221 C34.9625179,12.2547496 38.538198,9.0446407 43.398002,9.0446407 C46.0112929,9.0446407 47.9827228,9.77819603 48.899667,10.4200569 L48.5353024,11.2115245 C47.7558998,10.6617602 45.6493412,9.9611827 43.3577852,9.9611827 C38.2216914,9.9611827 35.984428,13.8421086 35.984428,16.6991136 C35.984428,20.6451909 39.0433216,21.9647057 42.9861815,23.8444412 C47.5705001,26.0905523 50,28.0712321 50,32.3812718 C50,37.0118398 46.6994032,40.7705066 40.8309605,40.7705066 C38.4006563,40.7705066 35.6043788,39.945659 34.2289626,38.890771 L34.6387723,37.974229 Z" id="Shape" fill="#000000" fill-rule="nonzero"></path>
            </g>
        </g>
    </g>
</svg>