<?xml version="1.0" encoding="UTF-8"?>
<svg width="50px" height="50px" viewBox="0 0 50 50" version="1.1" xmlns="http://www.w3.org/2000/svg" xmlns:xlink="http://www.w3.org/1999/xlink">
    <!-- Generator: Sketch 48.2 (47327) - http://www.bohemiancoding.com/sketch -->
    <title>javascript</title>
    <desc>Created with Sketch.</desc>
    <defs></defs>
    <g id="Symbols" stroke="none" stroke-width="1" fill="none" fill-rule="evenodd">
        <g id="javascript">
            <g>
                <rect id="Rectangle-2" x="0" y="0" width="50" height="50"></rect>
                <path d="M0,0 L0,50 L50,50 L50,0 L0,0 Z M26.4476,42.6052 C25.7096,44.1048 24.3008,45.09 22.6684,45.5656 C20.16,46.1416 17.7608,45.8132 15.976,44.742 C14.7816,44.0092 13.8488,42.8812 13.2156,41.5816 L17.0236,39.2496 C17.0568,39.2636 17.1568,39.4444 17.2904,39.678 C17.776,40.4916 18.1948,41.0676 19.018,41.472 C19.8268,41.748 21.6024,41.9244 22.288,40.5012 C22.7068,39.7772 22.5736,37.45 22.5736,34.8752 C22.5732,30.8292 22.592,26.8 22.592,22.8 L27.2756,22.8 C27.2756,27.2 27.2996,31.3672 27.2756,35.6608 C27.2856,38.2928 27.514,40.6392 26.4476,42.6052 Z M45.8772,41.282 C44.2492,46.8508 35.1724,47.0316 31.5452,43.3524 C30.7788,42.4864 30.2984,42.034 29.8412,41.0344 C31.7688,39.9256 31.7688,39.9256 33.6444,38.8404 C34.6632,40.4064 35.6052,41.2676 37.3,41.62 C39.5992,41.9008 41.9124,41.1108 41.3936,38.6688 C40.8604,36.6744 36.6856,36.1892 33.8444,34.0564 C30.96,32.1192 30.284,27.412 32.6544,24.7224 C33.4444,23.7276 34.7916,22.9852 36.2052,22.6284 L37.6804,22.4376 C40.5128,22.3804 42.2832,23.1284 43.5828,24.5796 C43.9444,24.946 44.2396,25.3412 44.7916,26.1976 C43.2828,27.1592 43.2876,27.15 41.1264,28.5492 C40.6648,27.5548 39.8988,26.9308 39.0892,26.6596 C37.8324,26.2788 36.2476,26.6928 35.9188,28.0208 C35.8048,28.43 35.8284,28.8108 36.0096,29.4868 C36.5188,30.648 38.2276,31.1528 39.7604,31.8572 C44.1728,33.6468 45.6628,35.5656 46.0292,37.8496 C46.382,39.816 45.944,41.0916 45.8772,41.282 Z" id="Shape" fill="#555555" fill-rule="nonzero"></path>
            </g>
        </g>
    </g>
</svg>