<?xml version="1.0" encoding="UTF-8"?>
<svg width="50px" height="50px" viewBox="0 0 50 50" version="1.1" xmlns="http://www.w3.org/2000/svg" xmlns:xlink="http://www.w3.org/1999/xlink">
    <!-- Generator: Sketch 48.2 (47327) - http://www.bohemiancoding.com/sketch -->
    <title>jquery</title>
    <desc>Created with Sketch.</desc>
    <defs></defs>
    <g id="Symbols" stroke="none" stroke-width="1" fill="none" fill-rule="evenodd">
        <g id="jquery">
            <g>
                <rect id="Rectangle-5" x="0" y="0" width="50" height="50"></rect>
                <path d="M25.515138,42.314241 C25.182797,42.2391833 24.8596877,42.1352264 24.5353743,42.0392971 L24.290935,41.9650421 C23.9738464,41.8679086 23.6595674,41.7655572 23.3468939,41.6579879 L23.2172488,41.6110267 C22.937087,41.5126891 22.6601362,41.4087322 22.3847908,41.302367 L22.1511888,41.2104514 C21.8493526,41.0912422 21.5491218,40.966815 21.2529048,40.8367685 L21.0734888,40.7572957 C20.8186138,40.6416988 20.5665484,40.5252992 20.3152858,40.4044844 L20.0961334,40.2993233 C19.8990568,40.203394 19.703987,40.101444 19.5097201,40.0010995 C19.3796736,39.9324638 19.2472188,39.867842 19.1183765,39.7963967 C18.8807607,39.6691598 18.6475601,39.5371065 18.4155636,39.4022435 L18.1783492,39.2697887 C17.8696895,39.0883658 17.5646422,38.9001196 17.2632073,38.7090636 L17.0163598,38.5444986 C16.7972074,38.4036149 16.5796605,38.2599216 16.3649233,38.1114117 L16.1550026,37.964106 C15.9478915,37.817603 15.7431887,37.6694945 15.5392887,37.5189778 L15.266753,37.3126695 C15.0805136,37.1701803 14.8946756,37.026487 14.7112458,36.8783785 L14.4635956,36.6796964 C14.230395,36.4874363 13.9996026,36.2947748 13.7716199,36.0964941 L13.6961608,36.032675 C13.4497147,35.8163322 13.2076838,35.5943702 12.9688639,35.3716054 L12.7641611,35.1745288 C12.5871534,35.00595 12.4129553,34.8361671 12.2415669,34.661969 L12.0368641,34.4576676 C11.8189158,34.2345015 11.6049813,34.0085256 11.3950606,33.7793388 L11.3637532,33.745623 C11.1417911,33.5031907 10.9254484,33.2555405 10.7131194,33.005482 L10.5429351,32.8031874 C10.3843908,32.6125329 10.2278534,32.41947 10.074527,32.2244003 L9.90313854,32.0108672 C9.71890603,31.7716459 9.5386873,31.5336288 9.36248234,31.2907951 C4.4857394,24.6383557 2.73332296,15.463657 6.63150629,7.92898876 L3.17524016,12.3124381 C-1.25155802,18.6746811 -0.700466,26.9531028 2.68114382,33.7139142 C2.76141942,33.8760709 2.84611019,34.035418 2.92879406,34.194765 L3.08733838,34.4994109 L3.18567599,34.6748131 L3.36188094,34.9902963 C3.46704198,35.1753315 3.57461129,35.359564 3.68499025,35.5437966 L3.86882138,35.8472383 C3.9908403,36.0443149 4.11566886,36.2389833 4.24370845,36.4332502 L4.4034569,36.6796964 C4.57926048,36.942599 4.75988059,37.2051002 4.94611999,37.4627849 L4.96177373,37.4828538 L5.05328792,37.6064782 C5.21383913,37.8284402 5.38000963,38.0475926 5.54778564,38.2643368 L5.73362366,38.5011498 C5.88333767,38.6893961 6.03545993,38.8764383 6.19079323,39.0626777 L6.36539267,39.2713942 C6.57330648,39.5162348 6.78563545,39.7598713 7.00197821,39.9986912 L7.0148223,40.0119367 L7.03970774,40.0392304 C7.25083258,40.2700227 7.46757671,40.4955972 7.68672911,40.7211716 L7.89424155,40.9302896 C8.06402445,41.1012766 8.236617,41.269454 8.41081506,41.4368286 L8.6219399,41.6375177 C8.85473915,41.8570714 9.08994667,42.0722101 9.32997072,42.2825321 L9.34120931,42.2913625 L9.46443236,42.3965235 C9.6755572,42.5795519 9.89069582,42.7613761 10.1078413,42.939588 L10.3743563,43.1519169 C10.551364,43.2940047 10.7303786,43.4336843 10.9105974,43.5709556 L11.1971813,43.7889038 C11.3958634,43.9354068 11.5965524,44.0795015 11.7988469,44.2203852 L12.0179993,44.3757185 L12.078206,44.418666 C12.2700647,44.5507193 12.4663386,44.6779562 12.6626124,44.805193 L12.9154806,44.9737718 C13.2161127,45.1640249 13.5215614,45.3522712 13.8298197,45.5340955 L14.0826879,45.6765847 C14.3094664,45.8074339 14.5378505,45.9358749 14.7694457,46.0615062 C14.8946756,46.1289377 15.0231166,46.1927568 15.1491493,46.2573787 C15.3125101,46.3428722 15.4746668,46.4295698 15.6408373,46.5126551 L15.7544273,46.5676439 L15.9555177,46.6647774 C16.212801,46.787599 16.4720912,46.9084138 16.7341911,47.0248134 L16.8987561,47.098667 C17.1989868,47.2299176 17.5016258,47.3559503 17.8070745,47.4763637 L18.0282338,47.5634627 C18.3108039,47.6722362 18.5973878,47.7798055 18.8851759,47.8809528 L18.9927452,47.9182809 C19.3082283,48.0286599 19.6273238,48.1310113 19.9484262,48.2309544 L20.1792186,48.2999914 C20.5059403,48.398329 20.8286482,48.5159328 21.1658058,48.5781464 C42.574908,52.4823504 48.793859,35.7127767 48.793859,35.7127767 C43.5703255,42.5177397 34.299296,44.3127022 25.515138,42.314241 Z M17.8030607,24.9622678 C18.2827075,25.6498284 18.8145333,26.4678368 19.4507175,27.0201329 C19.6815099,27.2742052 19.9227381,27.5222568 20.1691842,27.7658933 L20.3586346,27.9525341 C20.5978559,28.1845306 20.841091,28.4125133 21.0923536,28.6340739 L21.1220556,28.6597621 L21.1292804,28.6669869 C21.4074354,28.9110248 21.6944206,29.1450282 21.9862225,29.3762219 L22.1804894,29.5279428 C22.473094,29.7523131 22.7713179,29.9722683 23.0767665,30.1825903 L23.1028561,30.2022579 C23.2377191,30.2953776 23.3753918,30.3820752 23.5122617,30.4719839 L23.7057259,30.6000235 C23.9240755,30.7401044 24.1456362,30.8765729 24.3704079,31.0074222 L24.4643304,31.0620096 C24.6581959,31.1735927 24.8548712,31.2835702 25.0515464,31.3903368 L25.2606643,31.4991102 C25.3967315,31.5701542 25.5327986,31.6428036 25.6716754,31.7118406 L25.733889,31.7399371 C26.0156564,31.8788139 26.3002334,32.0128741 26.5912325,32.1393082 L26.7806829,32.2171755 C27.0126794,32.3159145 27.2474855,32.4122452 27.4830944,32.5021539 L27.784128,32.6125329 C27.9980624,32.6920057 28.2127997,32.7642538 28.4295438,32.8369032 L28.7213456,32.9304243 C29.0292026,33.0259522 29.3334471,33.146767 29.6541482,33.2001503 C46.1840992,35.9387525 50,23.2114569 50,23.2114569 C46.5601904,28.1656658 39.898118,30.5297823 32.7893119,28.6842462 C32.4734274,28.6011609 32.1623594,28.5112523 31.852897,28.4137174 L31.5719323,28.3226046 C31.3519772,28.2515607 31.1336275,28.1761016 30.9168834,28.0970301 L30.6214692,27.9870526 C30.3842548,27.8955384 30.1494486,27.8016159 29.9166494,27.7028769 L29.7267976,27.6226013 C29.4349958,27.4957659 29.1476091,27.3617056 28.8646376,27.2216247 C28.718536,27.1505808 28.575244,27.0755231 28.4319521,27.0016695 L28.182295,26.8732286 C27.9984638,26.7736868 27.8154354,26.6701313 27.6352167,26.5641675 L27.5043675,26.4899126 C27.2803985,26.3594647 27.0604434,26.2246017 26.8420937,26.0853235 L26.6422075,25.952066 C26.4985142,25.8589463 26.3544195,25.7638197 26.2131344,25.6682917 C25.9084885,25.4579697 25.6122715,25.2380145 25.3196669,25.0148483 L25.1185765,24.856304 C22.0070941,22.3998705 19.5406262,19.041942 18.3677996,15.2348715 C17.1387801,11.2869173 17.404091,6.85490118 19.533,3.25775136 L16.9172194,6.95042915 C13.715427,11.5574461 13.889625,17.7250207 16.3869991,22.5973485 C16.8056364,23.4153569 17.2764528,24.2080785 17.8030607,24.9622678 Z M35.2256765,19.2631013 C35.3617436,19.3132735 35.4978108,19.3582279 35.6358848,19.4051891 L35.8169063,19.4625862 C36.0111732,19.5235956 36.2046374,19.5946395 36.4057278,19.6327705 C45.5326626,21.3964255 48.0087636,14.9490903 48.667425,13.9998313 C46.4987795,17.1221509 42.8546685,17.8715237 38.382916,16.7861975 C38.0297033,16.700704 37.6411694,16.5730658 37.3008008,16.452251 C36.8641015,16.2965164 36.4338243,16.1191073 36.0159898,15.9188196 C35.2216627,15.5371091 34.4650651,15.0743203 33.7634563,14.5445013 C29.7621188,11.5080766 27.2763848,5.71659312 29.8873488,1 L28.4744982,2.94708478 C26.5872187,5.72462068 26.4017821,9.17406338 27.7114785,12.2413942 C29.0926203,15.4973727 31.9227367,18.0513411 35.2256765,19.2631013 Z" id="Shape" fill="#555555" fill-rule="nonzero"></path>
            </g>
        </g>
    </g>
</svg>