<?xml version="1.0" encoding="UTF-8"?>
<svg width="24px" height="24px" viewBox="0 0 24 24" version="1.1" xmlns="http://www.w3.org/2000/svg" xmlns:xlink="http://www.w3.org/1999/xlink">
    <!-- Generator: Sketch 48.2 (47327) - http://www.bohemiancoding.com/sketch -->
    <title>linkedin</title>
    <desc>Created with Sketch.</desc>
    <defs></defs>
    <g id="Symbols" stroke="none" stroke-width="1" fill="none" fill-rule="evenodd">
        <g id="linkedin">
            <g>
                <rect id="Rectangle-path" x="0" y="0" width="24" height="24"></rect>
                <path d="M7,5 C7,6.1 6.3,7 5,7 C3.8,7 3,6.1 3,5.1 C3,4 3.8,3 5,3 C6.2,3 7,3.9 7,5 Z M3,21 L7,21 L7,8 L3,8 L3,21 Z M16.6,8.2 C14.5,8.2 13.3,9.4 12.8,10.2 L12.7,10.2 L12.5,8.5 L8.9,8.5 C8.9,9.6 9,10.9 9,12.4 L9,21 L13,21 L13,13.9 C13,13.5 13,13.2 13.1,12.9 C13.4,12.2 13.9,11.3 15,11.3 C16.4,11.3 17,12.5 17,14.1 L17,21 L21,21 L21,13.6 C21,9.9 19.1,8.2 16.6,8.2 Z" id="Shape" fill="#ABABAB" fill-rule="nonzero"></path>
            </g>
        </g>
    </g>
</svg>