<?xml version="1.0" encoding="UTF-8"?>
<svg width="50px" height="50px" viewBox="0 0 50 50" version="1.1" xmlns="http://www.w3.org/2000/svg" xmlns:xlink="http://www.w3.org/1999/xlink">
    <!-- Generator: Sketch 48.2 (47327) - http://www.bohemiancoding.com/sketch -->
    <title>sql</title>
    <desc>Created with Sketch.</desc>
    <defs></defs>
    <g id="Symbols" stroke="none" stroke-width="1" fill="none" fill-rule="evenodd">
        <g id="sql">
            <g>
                <g id="microsoft-sql-server" transform="translate(2.000000, 0.000000)" fill="#555555" fill-rule="nonzero">
                    <path d="M28.8360365,23.3501808 L18.8454551,26.6124591 L10.1537886,30.4485429 L7.72216677,31.0904961 C7.10288305,31.6795539 6.45354749,32.2761681 5.75124688,32.8802692 C4.98100753,33.5447526 4.26362876,34.1489581 3.71228378,34.5868513 C3.10066102,35.0701879 2.19447454,35.9763396 1.73387705,36.5501451 C1.04665459,37.4109927 0.502970563,38.3247008 0.268858752,39.0270711 C-0.146504284,40.29576 0.0574860465,41.5794574 0.857916524,42.7651294 C1.88490233,44.2753474 3.93138709,45.8157912 6.31756554,46.8654465 C7.5334287,47.4017133 9.57984382,48.0888313 11.1202877,48.4738988 C13.6801609,49.1233736 18.633978,49.8256742 21.3599894,49.9314651 C21.9111603,49.9540997 22.6512782,49.9540997 22.6813996,49.9314651 C22.7418864,49.8935782 23.1647711,49.0856608 23.655699,48.0813793 C25.3321248,44.6604845 26.540327,41.4511016 27.1972539,38.7099772 C27.5899126,37.048734 27.8994848,34.836111 28.103301,32.2158555 C28.1562661,31.4833289 28.1788311,29.0291073 28.133527,28.1983812 C28.0655186,26.8391537 27.9446845,25.7367075 27.7560509,24.6568263 C27.7258249,24.4982097 27.718164,24.3547061 27.7333466,24.3471845 C27.7634681,24.3245498 27.8540763,24.2943587 29.0849827,23.9393431 L28.8358972,23.3504246 L28.8358972,23.3502505 L28.8360365,23.3502505 L28.8360365,23.3501808 Z M26.5555096,24.6868782 C26.6461178,24.6868782 26.8876816,27.0051179 26.9480639,28.4702058 C26.9632465,28.779778 26.9555856,28.9836639 26.9405422,28.9836639 C26.8801948,28.9836639 25.6643316,28.2663548 24.7960669,27.7226707 C24.0408709,27.2468906 22.6061482,26.2953652 22.3796277,26.1141488 C22.3039583,26.0613231 22.31148,26.0538014 22.9307985,25.8422894 C23.9803493,25.4873086 26.4724579,24.6868782 26.5555096,24.6868782 Z M21.4658151,26.3633388 C21.5338234,26.3633388 21.7073789,26.461399 22.1227419,26.7182151 C23.6782988,27.6923403 25.7927919,28.8704211 26.6989436,29.2631494 C26.9782898,29.3839488 27.0084113,29.338575 26.3666671,29.7766424 C24.9922918,30.7129851 23.2780139,31.6342149 21.1787034,32.5630709 C20.8087489,32.7292091 20.4991767,32.8575301 20.491655,32.8575301 C20.4766117,32.8575301 20.5217765,32.6688617 20.5821239,32.4422715 C21.0880952,30.5618206 21.3751024,28.6589091 21.390285,27.1335085 C21.3978067,26.3783125 21.3978067,26.3783125 21.4658151,26.3557823 C21.4506324,26.3633388 21.4581541,26.3633388 21.4658151,26.3633388 Z M20.4161946,26.7635192 C20.4613594,26.8087537 20.4312379,28.5003621 20.370786,28.9609596 C20.2348737,30.0635103 20.0234314,31.0904613 19.6761812,32.2459422 C19.5930947,32.5251491 19.5174602,32.7594002 19.5025213,32.7744436 C19.4721561,32.8121564 18.4376138,31.8002835 18.0978156,31.4076248 C17.5087578,30.7279588 17.04823,30.0483277 16.708397,29.3838443 C16.5347023,29.0440113 16.2629125,28.3795628 16.2855123,28.3568585 C16.4063116,28.2738068 20.3859687,26.7333629 20.4161946,26.7635192 Z M15.4774557,28.7042132 C15.4849774,28.7042132 15.492499,28.7042132 15.50016,28.7117348 C15.5152033,28.7268478 15.5681684,28.8477168 15.6134725,28.9835942 C15.8550363,29.6405908 16.3986507,30.6071595 16.8669788,31.2264084 C17.3804717,31.9060744 18.052616,32.63094 18.6112737,33.1066853 C18.7925946,33.2577105 18.9586283,33.4011445 18.9812282,33.4238488 C19.0266367,33.4691877 19.0417149,33.4615616 17.8107736,33.92982 C16.3837118,34.473504 14.8280157,35.0171881 13.0458338,35.5910632 C12.62011,35.7283166 12.1947744,35.8667715 11.7698322,36.0064263 C11.7017542,36.0291305 11.7244584,35.9913133 11.9207878,35.6817759 C12.80427,34.2998093 14.1483845,31.588876 14.9035805,29.6707819 C15.0319712,29.3385054 15.160327,29.0062985 15.1830313,28.9307685 C15.2132572,28.8249777 15.2509352,28.7872649 15.3490651,28.7343695 C15.4019256,28.7193958 15.4548559,28.7042132 15.4774557,28.7042132 Z M13.9673074,29.3309837 C13.9899072,29.3461663 13.6047701,30.1540837 13.2271895,30.8941319 C12.494663,32.3213329 11.6942325,33.7260038 10.6219426,35.4325859 C10.4407262,35.7270452 10.2671011,35.9989742 10.2443968,36.0291654 C10.206684,36.0820608 10.1915014,36.0668782 10.0707021,35.832836 C9.81395563,35.3268647 9.60244364,34.6773899 9.4892008,34.0808105 C9.37588831,33.4917527 9.39859259,32.4648365 9.52701805,31.8305443 C9.62507827,31.3623903 9.61762625,31.3699468 9.84414676,31.2566343 C10.8107155,30.7658109 13.9370815,29.3007926 13.9673074,29.3309837 Z M26.9934725,29.8596592 L26.9934725,30.1767879 C26.9934725,31.8607703 26.8122561,34.1714883 26.5478487,35.8555403 C26.5025446,36.1499995 26.4646576,36.3915633 26.4572405,36.3992243 C26.4572405,36.3992243 26.2382764,36.3388769 25.98153,36.2632424 C24.8488578,35.9082964 23.6179513,35.387247 22.5078442,34.7756939 C21.775248,34.3754438 20.7105842,33.7183777 20.740845,33.6881517 C20.7482622,33.6806649 21.0654953,33.5145266 21.4354498,33.3181624 C22.9157204,32.5479579 24.3352605,31.7173015 25.566167,30.8942015 C26.0268341,30.5845597 26.7214389,30.0862494 26.8726383,29.9502674 L26.9934725,29.8596592 Z M8.2658508,32.0947428 C8.29604192,32.0947428 8.28848543,32.1551599 8.24318133,32.4270193 C8.21295539,32.6234183 8.17524259,32.9858859 8.16023409,33.2349714 C8.09967772,34.3375221 8.28103341,35.1531352 8.82471744,36.2706944 C8.97574272,36.5803362 9.09664651,36.8370827 9.08898556,36.8445695 C9.03609015,36.8899433 4.03714308,38.3549964 2.46633397,38.7853679 C1.99817999,38.9136889 1.59047791,39.0270014 1.56011267,39.0344534 C1.50735655,39.049636 1.49976524,39.0421144 1.52239988,38.9136193 C1.69605979,37.8036514 2.54186401,36.3537461 3.71984027,35.1303613 C4.50522742,34.3148526 5.1320328,33.8391422 6.20432271,33.2273801 C6.97456206,32.7894869 8.16012962,32.1325949 8.25073782,32.1022993 C8.25080747,32.0947428 8.25832913,32.0947428 8.2658508,32.0947428 Z M20.0461357,34.2016098 C20.0536573,34.1940881 20.2348737,34.2923225 20.4538378,34.4206435 C22.0698813,35.3570559 24.3201823,36.2254947 26.2381371,36.6709793 L26.4119364,36.7087965 L26.1702332,36.8445695 C25.1659517,37.4034362 21.8659606,38.7777418 18.490544,40.0389091 C17.9996161,40.2200558 17.516384,40.4013767 17.4256365,40.4390895 C17.3350283,40.4768023 17.2519417,40.4995065 17.2519417,40.4919849 C17.2519417,40.4843239 17.3879585,40.2200558 17.561514,39.8954054 C18.505448,38.1283714 19.4570083,35.9762351 19.9402752,34.4810257 C20.0008316,34.3375569 20.0384747,34.2092359 20.0461357,34.2016098 Z M18.8454551,34.5943382 C18.8531161,34.602034 18.7926294,34.7604764 18.7170645,34.9416928 C18.0601376,36.5350321 17.1991508,38.2719795 16.0967046,40.2201951 C15.8173583,40.7186447 15.5832117,41.1188947 15.5755507,41.1188947 C15.5681335,41.1188947 15.3415086,40.982878 15.069684,40.8167745 C13.4686837,39.835058 12.049074,38.6268558 11.1203225,37.4563664 L10.9843406,37.2902282 L11.6714586,37.1014204 C14.1332715,36.4294154 16.2249211,35.7044802 18.3016666,34.8134415 C18.5962304,34.6925725 18.8379335,34.5943382 18.8454551,34.5943382 Z M26.3062848,37.1995851 C26.3062848,37.1995851 26.3138413,37.2071416 26.3062848,37.1995851 C26.3138065,37.3732799 25.9286694,38.9289064 25.6114711,40.0539524 C25.3472029,40.9978865 25.1205431,41.7380043 24.7053194,43.0443016 C24.524103,43.6183509 24.3656257,44.0939569 24.3579647,44.0939569 C24.3504431,44.0939569 24.305139,44.0864352 24.2598349,44.0714267 C22.0170904,43.6635157 20.0083881,43.097197 18.1205199,42.3421054 C17.5918444,42.1305935 16.8367528,41.7907605 16.7914487,41.7530477 C16.7764054,41.7377954 17.229516,41.5264924 17.8033912,41.2772676 C21.2392946,39.7745365 24.8035537,38.0678847 26.0268341,37.3354974 C26.1702681,37.2448544 26.2835805,37.1995851 26.3062848,37.1995851 Z M9.08146389,37.7886429 C9.09657687,37.8036862 8.1375298,39.1856528 6.79331083,41.0659297 C6.32515685,41.7229262 5.78147283,42.4931307 5.57762179,42.7800683 C5.3737011,43.0670407 5.06412889,43.5201513 4.89043415,43.7920108 L4.57313133,44.282869 L4.23329835,43.9959315 C3.83304829,43.6635853 3.13840863,42.9537979 2.82880159,42.5611043 C2.17932674,41.753187 1.74143354,40.8998611 1.5677388,40.1221349 C1.48465226,39.7595976 1.48465226,39.5782767 1.56007785,39.5557466 C1.67332069,39.5255554 3.6895795,39.0497753 5.57755214,38.611708 C6.62720741,38.3701442 7.84289645,38.0832066 8.28089412,37.9774854 C8.71892662,37.8715901 9.07394223,37.7886429 9.08146389,37.7886429 Z M10.0479978,38.158667 L10.2895616,38.4304916 C11.3771038,39.6462851 12.4871413,40.5450544 13.8312906,41.3302326 C14.0729938,41.4662494 14.2541753,41.5869791 14.2389927,41.5946748 C14.1862714,41.6323876 9.57221769,43.2708917 7.43519437,44.0109748 C6.23458348,44.4338247 5.24527564,44.7736228 5.23782362,44.7736228 C5.23030196,44.7736228 5.16229357,44.7283884 5.08665906,44.675493 L4.9508164,44.5772935 L5.16978042,44.2601996 C5.87956787,43.2331789 6.77078066,42.1080633 8.7114746,39.7671193 L10.0479978,38.158667 Z M16.0741396,42.4704613 C16.0815568,42.4629744 16.4138333,42.5837041 16.8215702,42.7349035 C17.8033912,43.104858 18.5810477,43.3389001 19.623251,43.6032379 C20.9070181,43.9279927 22.7646255,44.2451562 23.8596545,44.3357296 C24.0257927,44.3507729 24.1164009,44.3659556 24.086175,44.388625 C24.0332099,44.418851 22.9232769,44.7888751 22.1076986,45.0456215 C20.8087489,45.4533236 16.8443093,46.6237782 13.6123266,47.552669 C13.0157472,47.7263289 12.5022195,47.8698325 12.4720283,47.8773193 C12.3966028,47.892502 12.1473083,47.8244239 12.1473083,47.7942328 C12.1473083,47.7792243 12.3285247,47.5451473 12.5475584,47.288366 C13.6348916,45.989486 14.7148425,44.5396503 15.6134725,43.165275 C15.8625928,42.78759 16.0741396,42.4780177 16.0741396,42.4704613 Z M14.744964,42.5083133 C14.7524856,42.515835 14.2163929,43.3766477 13.2801198,44.8567094 C12.8798001,45.4834799 12.4342459,46.1933022 12.2756293,46.442527 C12.124604,46.6841605 11.8980835,47.0618107 11.7697625,47.2731834 L11.5507289,47.6583553 L11.437486,47.6281294 C11.165557,47.5525993 9.25508898,46.880455 8.74911775,46.676604 C8.12231236,46.4273792 7.47290716,46.1253983 6.98957056,45.8686518 C6.38553911,45.543897 5.63044755,45.0605604 5.69079498,45.0455519 C5.70587313,45.0380302 6.74045024,44.7585099 7.98636524,44.4187813 C11.2939476,43.5200469 13.1288856,42.9990671 14.3296706,42.6215214 C14.5487042,42.5535478 14.7374423,42.5006524 14.744964,42.5083133 Z M24.1465224,44.7132058 L24.1540441,44.7132058 C24.18427,44.7888054 22.9610245,48.1869264 22.5152962,49.2591815 C22.4172708,49.5008149 22.3796277,49.5613365 22.3266626,49.5536407 C22.198272,49.5462235 20.4237511,49.2969987 19.3437654,49.1383821 C17.4635582,48.8514446 14.3070011,48.3000996 13.5141619,48.1189528 L13.3329455,48.08124 L14.4579567,47.8243195 C16.8745004,47.2806354 18.0373985,46.9861762 19.2153748,46.6237086 C20.7030625,46.1706327 22.1756722,45.6042444 23.6632206,44.90957 C23.8972976,44.803814 24.0936618,44.7207622 24.1465224,44.7132058 Z" id="Shape"></path>
                    <path d="M18.5358829,0.0615401469 C18.3697447,0.0390099755 15.688898,1.0055787 13.9596813,1.70777485 C11.6262241,2.65936989 9.81399045,3.56559119 8.69632681,4.3507694 C8.28106824,4.64540275 7.75991438,5.1663825 7.67696714,5.37023354 C7.64677601,5.44576359 7.63159339,5.53637179 7.63159339,5.62697999 L8.64353586,6.58602705 L11.0523838,7.3562664 L16.7839619,8.38328703 L23.3385354,9.50847234 L23.4065438,8.94211885 C23.383944,8.94211885 23.3687614,8.93459718 23.3463009,8.93459718 L22.4852095,8.79861524 L22.3116541,8.48904302 C21.4205458,6.91830355 20.4388641,4.9700183 19.8649889,3.6560601 C19.4195044,2.63659596 18.9965849,1.45868935 18.7624382,0.612885129 C18.6340476,0.0993922277 18.6190043,0.0692011016 18.536057,0.061679437 L18.536057,0.0615053244 L18.5358829,0.0615053244 L18.5358829,0.0615401469 Z M18.4149095,0.446781701 L18.4226749,0.446781701 C18.4300921,0.454233721 18.4603181,0.665815361 18.4905788,0.914866034 C18.6188302,1.97221707 18.8531161,2.9915071 19.2230706,4.09405777 C19.5024168,4.92474902 19.5024168,4.87947974 19.1777665,4.78124541 C18.4075271,4.56987271 14.9565456,3.97329327 12.4570198,3.62593862 C12.0567698,3.57304321 11.7169368,3.52021744 11.7169368,3.51269578 C11.6867457,3.48250465 13.5216836,2.52338794 14.3297054,2.14591181 C15.3642477,1.67006206 18.2035716,0.484494492 18.4149095,0.446781701 Z M11.1353659,3.82978966 L11.4299992,3.92784988 C13.0307905,4.47163837 17.0556124,5.24191255 19.2758615,5.42312895 C19.5249818,5.44579841 19.7365286,5.46850269 19.7439458,5.46850269 C19.7514675,5.47602436 19.5401644,5.58930202 19.2682354,5.71762301 C18.1960499,6.25378537 17.0179692,6.91078188 16.2023909,7.41675312 C15.9608271,7.56770875 15.7417238,7.68861255 15.7116023,7.68861255 C15.6813764,7.68861255 15.5228643,7.6583866 15.356726,7.63571714 L15.0546755,7.59034339 L14.2996187,6.85026034 C12.9705476,5.55904125 11.928414,4.5622814 11.5281639,4.18463115 L11.1353659,3.82978966 Z M10.8334198,4.06383182 L11.8981532,5.39293782 C12.47955,6.12542956 13.0685729,6.8427735 13.1970681,7.00128562 C13.3253194,7.15997185 13.4311102,7.28839731 13.4235886,7.29591897 C13.3933626,7.31855361 11.8831795,7.0239899 11.0826097,6.84284315 C10.2595098,6.65400061 9.91971163,6.56339241 9.41377521,6.40488029 L8.99841218,6.26889835 L8.99841218,6.16310753 C9.00593384,5.65713629 9.64788703,4.90204474 10.7352551,4.13187503 L10.8334198,4.06383182 Z M19.8799974,5.87620477 C19.9102582,5.87620477 19.9479013,5.94414351 20.0385095,6.14802938 C20.295256,6.71434804 21.0958606,8.23981824 21.2920159,8.53427748 C21.352607,8.63254663 21.4581541,8.6400683 20.3935252,8.46637356 C17.833652,8.05094088 17.0104476,7.91516787 17.0104476,7.9000549 C17.0104476,7.89253323 17.0859776,7.83963782 17.1841423,7.78674241 C17.9770859,7.3488492 18.7774816,6.78998256 19.4873735,6.19340312 C19.6610682,6.04989951 19.81965,5.91398721 19.8497715,5.89128293 C19.8572931,5.87620477 19.8724758,5.86868311 19.8799974,5.87620477 Z" id="Shape"></path>
                    <path d="M7.72965361,5.26451236 C7.72965361,5.26451236 7.56361983,5.52891977 7.72216677,5.92161334 C7.82043592,6.16317717 8.10733868,6.45763641 8.43198905,6.75975661 C8.43198905,6.75975661 11.7923624,10.0370434 12.2001689,10.5053018 C14.0577415,12.6498468 14.8657981,14.7642703 14.9413282,17.6791591 C14.9866323,19.5519143 14.6316166,21.1981142 13.7481693,23.1086518 C12.1774646,26.5370335 8.86232576,30.3203264 3.7500314,34.5189474 L4.49774058,34.2697226 C4.98100753,33.9071854 5.63800404,33.5221876 7.17844792,32.6763834 C10.7351158,30.7279936 14.7374075,28.938325 19.6458856,27.0957957 C26.7138476,24.4376185 38.3356552,21.3263655 44.9505762,20.3145972 L45.6378683,20.2088064 L45.5320775,20.0426681 C44.9280808,19.1062557 44.5126133,18.5248589 44.0141638,17.9056448 C42.5643977,16.1083848 40.8050247,14.6510275 38.6527491,13.4427556 C35.692591,11.7890689 31.8638896,10.4977802 27.0160026,9.53873311 C26.1022945,9.35741224 24.0935922,9.01009241 22.4625053,8.76090245 C19.0038976,8.22487938 16.7686748,7.85478562 14.3069663,7.43190092 C13.4235189,7.280806 12.1018998,7.05432032 11.2259392,6.86558225 C10.7728634,6.7673131 9.90452901,6.56346206 9.22489786,6.32938507 C8.68121383,6.11783825 7.89579186,5.9063959 7.72965361,5.26451236 Z M9.67804333,7.15245018 C9.68549535,7.14499816 9.80629468,7.19016297 9.96498091,7.24305838 C10.2519185,7.3411186 10.6219078,7.45443109 11.0600099,7.57533488 C11.3914406,7.66649814 11.7237081,7.75459129 12.0567698,7.839603 C12.5098456,7.95281102 12.8873565,8.05856701 12.8948782,8.05856701 C12.9478433,8.11146242 13.710561,10.550397 13.9673074,11.4868094 C14.0653328,11.841825 14.1410021,12.1438059 14.1334457,12.1438059 C14.1256802,12.1514669 14.042733,12.0230066 13.9446031,11.8493467 C13.0610513,10.2937202 11.6640414,8.71549388 10.0479978,7.44680496 C9.83665991,7.29591897 9.67804333,7.15997185 9.67804333,7.15245018 Z M13.3933278,8.17943599 C13.4311102,8.17943599 13.5972485,8.20210545 13.8010299,8.24737472 C15.0847969,8.5343123 17.3880282,8.97230998 18.8604985,9.22153476 C19.1097233,9.25924755 19.3061223,9.30465612 19.3061223,9.31966463 C19.3061223,9.33484725 19.2154096,9.38760337 19.1020971,9.44809009 C18.8530116,9.57641108 17.8485908,10.1729209 17.5164188,10.399511 C16.6781362,10.958308 15.9230795,11.5624091 15.3793258,12.1060931 C15.1603618,12.3251268 14.9714845,12.5063432 14.9714845,12.5063432 C14.9714845,12.5063432 14.9263196,12.3780222 14.8883979,12.219336 C14.6167126,11.1696807 14.0502547,9.61405422 13.5367618,8.5191645 C13.4536752,8.34553941 13.3856668,8.18692283 13.3856668,8.1718795 C13.3856668,8.18695765 13.3856668,8.17943599 13.3933278,8.17943599 Z M19.9328232,9.42542062 C19.9781273,9.44046395 20.0536573,9.69724523 20.2046478,10.2635639 C20.4840985,11.3585929 20.6124892,12.5819081 20.5671851,13.7221715 C20.5520024,14.0393351 20.5369591,14.3337943 20.5217765,14.3716464 L20.4991767,14.447072 L20.1065179,14.318751 C19.2984961,14.0620045 17.9846076,13.6767978 16.8594919,13.3597039 C16.2175039,13.1860092 15.6965938,13.0274274 15.6965938,13.0123493 C15.6965938,12.9669755 16.6330062,12.0306327 17.0331867,11.6757564 C17.7957302,11.0035773 19.8648148,9.40271634 19.9328232,9.42542062 Z M20.4538726,9.50084621 C20.4765769,9.47831603 23.5802037,10.0143391 24.9923266,10.2862334 C26.0420515,10.4900844 27.5673824,10.8072827 27.6579558,10.8451 C27.7032599,10.8601433 27.5446433,10.9507515 27.0386721,11.177272 C25.0451524,12.0759717 23.5649863,12.8838542 22.0926204,13.8656403 C21.7074834,14.1223868 21.3827285,14.3337943 21.3752069,14.3337943 C21.3676852,14.3337943 21.3601287,14.1148651 21.3601287,13.8505274 C21.3601287,12.4158047 21.0731563,10.9658993 20.544446,9.74258415 C20.4916202,9.62175 20.4463161,9.50850716 20.4538726,9.50084621 Z M28.4810209,11.0867335 C28.5037252,11.1093681 28.4054909,11.7210953 28.3148827,12.0834933 C28.0430581,13.2086786 27.3106012,14.8776524 26.4120756,16.4482526 C26.2533546,16.7276685 26.1099206,16.9542239 26.0947032,16.9617455 C26.0797643,16.9692672 25.8758436,16.8559547 25.641697,16.7200424 C24.7657713,16.2065495 23.7690114,15.7232826 22.6815389,15.2701371 C22.3795928,15.1418161 22.1152203,15.0360253 22.1076638,15.0210516 C22.0546987,14.9756778 24.4863206,13.3672256 25.7700876,12.5969862 C26.7895518,11.977807 28.450795,11.0564727 28.4810209,11.0867335 Z M29.0548961,11.1773069 C29.1229045,11.1773069 30.4972797,11.5549223 31.214554,11.7663646 C32.9892142,12.2950053 35.028038,13.0425404 36.3571092,13.6466415 L36.90828,13.8959359 L36.5232823,13.9864745 C33.2762562,14.7340095 30.4972797,15.5949964 27.8164679,16.6823644 C27.5974691,16.7729726 27.4011049,16.8485027 27.386166,16.8485027 C27.3709834,16.8485027 27.4465135,16.6748428 27.5446782,16.4633308 C28.3526999,14.7491922 28.8737493,12.9594887 29.0020007,11.4340185 C29.0096965,11.2905149 29.0321918,11.1773069 29.0548961,11.1773069 Z M15.3718042,14.318751 C15.394404,14.2960467 16.4440941,14.5453063 17.0104476,14.7037488 C17.8712951,14.9454867 19.6986766,15.5570747 19.6986766,15.6024484 C19.6986766,15.6099701 19.4948603,15.7836648 19.2532965,15.9951768 C18.2640583,16.8182767 17.3124981,17.6865763 16.172165,18.789127 C15.832332,19.1139515 15.5454641,19.3782196 15.5304207,19.3782196 C15.5152381,19.3782196 15.5078209,19.332811 15.5152381,19.2724288 C15.688898,18.0037398 15.6512549,16.3726878 15.4095866,14.7189314 C15.3868475,14.5074194 15.3642477,14.3262726 15.3718042,14.318751 Z M37.4295384,14.3414553 C37.4444772,14.3564638 36.946167,15.1418161 36.6290382,15.5873006 C36.1760321,16.2367058 35.511305,17.0977275 34.0085739,18.9855608 C33.2158392,19.982251 32.3246264,21.107506 32.0302368,21.4850518 C31.7280469,21.8625976 31.4789614,22.1796914 31.4713005,22.1796914 C31.4637788,22.1796914 31.3657534,22.0438488 31.2599626,21.8777453 C30.4141584,20.6090564 29.4022159,19.4989841 28.2015354,18.5022242 C27.9750149,18.3133817 27.7259294,18.1094958 27.6428428,18.0490788 C27.5597563,17.9886965 27.4917479,17.9282794 27.4917479,17.9207578 C27.4917479,17.898158 28.7753757,17.3467782 29.749675,16.954189 C31.4563268,16.2594101 33.7819141,15.4287885 35.5264528,14.8925913 C36.4401957,14.6056886 37.4143558,14.3262726 37.4295384,14.3414553 Z M38.0109352,14.4923761 C38.0410567,14.4848892 38.2223775,14.5754974 38.4413764,14.7037488 C40.2764188,15.753404 42.0735395,17.1051795 43.4933233,18.4946677 C43.8935037,18.8873961 44.8827419,19.9143819 44.8675593,19.9219036 C44.8675593,19.9219036 44.5202047,19.9520947 44.1125026,19.982251 C40.9333457,20.223989 36.8632197,20.8959592 32.9515014,21.8398584 C32.6872333,21.9002059 32.4531911,21.9531013 32.4380085,21.9531013 C32.4230696,21.9531013 32.7174592,21.658642 33.087553,21.3037657 C35.3831233,19.0912124 36.4328482,17.6942024 37.6711718,15.2021635 C37.8447969,14.8322439 37.9958919,14.5150804 38.0109352,14.4923761 C38.0034135,14.4923761 38.0034135,14.4923761 38.0109352,14.4923761 Z M21.193886,16.2142105 C21.2996768,16.2367406 22.2813585,16.6975471 23.0213719,17.0674667 C23.7010031,17.4071604 24.720502,17.9509837 24.7733278,17.9962182 C24.7808494,18.0037398 24.4183122,18.1925476 23.972967,18.4115812 C22.5531831,19.1214035 21.3374592,19.7934085 20.0687355,20.5636827 C19.7063027,20.7827163 19.4042521,20.9640372 19.3967305,20.9640372 C19.3665045,20.9640372 19.3740262,20.933672 19.5779469,20.5636827 C20.2576129,19.325359 20.8012272,17.8452625 21.1109387,16.4028789 C21.1410254,16.289636 21.1712862,16.2142105 21.193886,16.2142105 Z M20.2121695,16.3953572 C20.2348737,16.4180615 19.9781273,17.346813 19.8196152,17.8527842 C19.5099037,18.8118313 18.9888891,20.012477 18.4830223,20.9186635 C18.3620489,21.1300013 18.1808673,21.4396432 18.0827026,21.6133031 L17.8939646,21.9153537 L17.4710799,21.5076864 C16.9802912,21.0319063 16.5799715,20.7374122 16.0665831,20.4730397 C15.862558,20.3674229 15.7040458,20.2767103 15.7040458,20.2617018 C15.7040458,20.2012847 16.9953346,19.0308301 17.9845728,18.1850607 C18.6943602,17.5733683 20.1895696,16.3727226 20.2121695,16.3953572 Z M26.2157114,18.8647267 L26.5857704,19.1062905 C27.4313308,19.6576355 28.4280907,20.3900576 29.1909477,21.0319063 C29.6212496,21.3867478 30.4518712,22.134457 30.6181487,22.3156734 L30.7086176,22.4139425 L30.0970993,22.5875676 C26.6384917,23.5465102 23.965306,24.3998361 20.8465313,25.5477257 C20.4991767,25.6760467 20.2046478,25.7817679 20.1819435,25.7817679 C20.1367787,25.7817679 20.0988918,25.8194807 20.8767921,25.1020671 C22.8704163,23.2672336 24.6373458,21.2433138 25.9513389,19.2723939 L26.2157114,18.8647267 Z M24.6374155,19.2573854 C24.6524588,19.2724288 23.6179513,20.7298209 22.9986676,21.5529557 C22.2586542,22.5346722 20.9446612,24.1808373 20.0385095,25.2530575 C19.6610334,25.6986813 19.336383,26.0686706 19.3212004,26.0762619 C19.2984961,26.0837836 19.2909745,25.9705408 19.2909745,25.796846 C19.2909745,24.8830334 19.0569323,23.9089082 18.6490909,23.0783214 C18.4753962,22.7309668 18.4451703,22.6478802 18.4830572,22.6101674 C18.6264911,22.481742 20.8239315,21.2282009 22.2133501,20.4806658 C23.1497277,19.9822859 24.6145719,19.2422725 24.6374155,19.2573854 Z M15.0923186,21.5983294 C15.1150229,21.5983294 15.2887176,21.688868 15.4850818,21.7946588 C15.9683488,22.0589269 16.39879,22.353421 16.7838922,22.6706542 C16.7989356,22.6856975 16.6026758,22.8443489 16.3459294,23.0330173 C15.6285158,23.5465102 14.5411477,24.3696798 13.9069252,24.875651 C13.2422329,25.4042569 13.2197375,25.4193351 13.2951631,25.3060922 C13.7936127,24.5433745 14.0426982,24.1129334 14.3071056,23.5617277 C14.5411477,23.070939 14.7751899,22.4894378 14.9413282,21.9834665 C15.0017104,21.7644677 15.0772753,21.5983294 15.0923186,21.5983294 Z M17.6372529,23.5918491 C17.6748961,23.5843971 17.7203395,23.6522662 17.9241209,23.9543864 C18.3545621,24.5961307 18.6868386,25.4571175 18.7700296,26.1518268 L18.7849684,26.3029217 L17.7505654,26.7031718 C15.9003404,27.4204809 14.1938279,28.1303728 13.0383122,28.6588742 C12.7136966,28.8099692 12.1473083,29.0817589 11.7773539,29.2631146 C11.4072949,29.451783 11.1052444,29.5952867 11.1052444,29.587765 C11.1052444,29.5802433 11.3392865,29.4065486 11.6262241,29.1950366 C13.8842557,27.5564629 15.839993,25.7591332 17.3049416,23.9619429 C17.4635582,23.7731004 17.6070966,23.5994056 17.6220703,23.591884 L17.6372529,23.5918491 Z M16.4667983,23.8788564 C16.4970243,23.9090475 15.6361767,24.8831379 15.0471538,25.4796825 C13.5897268,26.9674051 12.147378,28.1303728 10.3576397,29.2631146 C10.1311192,29.4065486 9.92726812,29.5348696 9.90456383,29.5500522 C9.85166842,29.5802433 9.91960716,29.5046785 10.7049943,28.6513526 C11.2034439,28.1151902 11.5809548,27.6621144 12.011396,27.103387 C12.2983336,26.7334326 12.351229,26.6805371 12.7666269,26.3859038 C13.8766992,25.5854385 16.4365724,23.8485956 16.4667983,23.8788564 Z" id="Shape"></path>
                </g>
                <rect id="Rectangle-10" x="0" y="0" width="50" height="50"></rect>
            </g>
        </g>
    </g>
</svg>