<?xml version="1.0" encoding="UTF-8"?>
<svg width="24px" height="24px" viewBox="0 0 24 24" version="1.1" xmlns="http://www.w3.org/2000/svg" xmlns:xlink="http://www.w3.org/1999/xlink">
    <!-- Generator: Sketch 48.2 (47327) - http://www.bohemiancoding.com/sketch -->
    <title>twitter</title>
    <desc>Created with Sketch.</desc>
    <defs></defs>
    <g id="Symbols" stroke="none" stroke-width="1" fill="none" fill-rule="evenodd">
        <g id="twitter">
            <g>
                <rect id="Rectangle-path" x="0" y="0" width="24" height="24"></rect>
                <path d="M19.316,8.246 C19.324,8.408 19.327,8.572 19.327,8.734 C19.327,13.724 15.53,19.476 8.587,19.476 C6.454,19.476 4.471,18.851 2.8,17.779 C3.096,17.814 3.396,17.832 3.7,17.832 C5.47,17.832 7.097,17.228 8.388,16.217 C6.737,16.186 5.342,15.096 4.862,13.596 C5.092,13.639 5.329,13.662 5.572,13.662 C5.917,13.662 6.251,13.617 6.567,13.531 C4.84,13.183 3.539,11.658 3.539,9.828 C3.539,9.812 3.539,9.797 3.539,9.781 C4.048,10.064 4.631,10.234 5.249,10.254 C4.236,9.576 3.569,8.422 3.569,7.111 C3.569,6.42 3.755,5.771 4.081,5.213 C5.942,7.498 8.725,9 11.862,9.158 C11.798,8.881 11.765,8.594 11.765,8.297 C11.765,6.213 13.454,4.524 15.539,4.524 C16.625,4.524 17.606,4.981 18.295,5.715 C19.154,5.545 19.962,5.231 20.692,4.799 C20.41,5.68 19.811,6.42 19.032,6.887 C19.796,6.795 20.522,6.594 21.2,6.293 C20.694,7.051 20.054,7.715 19.316,8.246 Z" id="Shape" fill="#ABABAB" fill-rule="nonzero"></path>
            </g>
        </g>
    </g>
</svg>