<?xml version="1.0" encoding="UTF-8"?>
<svg width="51px" height="50px" viewBox="0 0 51 50" version="1.1" xmlns="http://www.w3.org/2000/svg" xmlns:xlink="http://www.w3.org/1999/xlink">
    <!-- Generator: Sketch 48.2 (47327) - http://www.bohemiancoding.com/sketch -->
    <title>wordpress</title>
    <desc>Created with Sketch.</desc>
    <defs></defs>
    <g id="Symbols" stroke="none" stroke-width="1" fill="none" fill-rule="evenodd">
        <g id="wordpress">
            <g>
                <path d="M25.9592649,49.9999732 C39.710953,49.9791099 50.8431001,38.7927987 50.8431001,24.9941683 C50.8431001,11.4198177 39.7623087,0.240327176 26.5241774,0.00401078514 C12.6212308,-0.243940878 1.00361204,11.0374586 1.00000109,24.7177302 C0.995988926,38.7919963 12.0783851,50.020034 25.9592649,49.9999732 Z M25.9187421,1.21448031 C39.1215663,1.21006694 49.6410561,11.9369855 49.6370439,25.3997979 C49.6326305,38.1099286 38.8342955,48.7425613 25.9283713,48.7453698 C12.7801124,48.7481784 2.20645846,38.0878617 2.20685967,24.8296696 C2.2076621,11.9133137 12.9458147,1.21889369 25.9187421,1.21448031 Z M15.9541344,13.7589087 C16.1699888,14.4782894 15.5657571,14.7286484 14.9234098,14.7788004 C14.2473604,14.8309586 13.5717121,14.881913 12.7869331,14.9416943 C15.3771854,22.6586883 17.9285198,30.2613356 20.5404378,38.0409194 C20.7266021,37.7363962 20.8032344,37.6505359 20.8369366,37.5502319 C22.2708836,33.2644395 23.7128549,28.9814557 25.1102912,24.6836269 C25.237878,24.2916385 25.1744859,23.7724647 25.0348626,23.3696435 C24.295421,21.2351729 23.4095354,19.1472433 22.7611699,16.9870949 C22.3178259,15.5082117 21.7296428,14.5513108 19.9815435,14.7226302 C19.683841,14.751919 19.3203391,14.1111765 18.9869283,13.7801731 C19.3901507,13.5394433 19.7905645,13.0965006 20.1973978,13.0904823 C23.7569887,13.0363181 27.3177832,13.0363181 30.8769729,13.0936921 C31.2854111,13.1005127 31.6858249,13.5550908 32.0890473,13.8018388 C31.735977,14.1244167 31.4314538,14.6082835 31.0186022,14.7330618 C30.3561942,14.9328675 29.6215671,14.8951532 28.8287638,14.9657672 C31.4218246,22.6791503 33.9615237,30.2348554 36.5918976,38.0597765 C37.7678626,34.1535348 38.8619794,30.5666612 39.926005,26.9705597 C40.8752827,23.7604282 40.3095677,20.7625401 38.5931645,17.935169 C38.0772003,17.0849916 37.4432786,16.260091 37.1507919,15.3328801 C36.8185849,14.2780825 36.542548,13.0772422 36.718682,12.0192348 C37.0175881,10.2261993 38.3933588,9.33590034 40.2550023,9.16538342 C30.0673184,-0.289679535 14.0579863,3.09498104 8.15890325,13.368124 C10.4297874,13.2634065 12.5979602,13.1257894 14.7677379,13.0960994 C15.1777809,13.0908835 15.8578425,13.4375344 15.9541344,13.7589087 Z M20.0132396,45.0421435 C19.9658961,45.1805632 19.9630875,45.3346302 19.9257744,45.5645271 C24.3162842,46.7818173 28.6221374,46.693951 33.029097,45.2090495 L26.2966878,26.7691491 C24.1421564,33.0325365 22.0758925,39.036337 20.0132396,45.0421435 Z M16.6205547,44.2084161 L6.4774058,16.3840668 C1.90153408,25.3223632 5.38248656,38.9597047 16.6205547,44.2084161 Z M47.2847128,26.329416 C47.6064883,22.1030037 46.1484683,16.2512642 44.8894516,15.4464243 C44.7490259,17.0011374 44.8469227,18.7307808 44.4007702,20.3067584 C43.3507872,24.0200151 42.0668951,27.668676 40.8303465,31.3273673 C39.4862719,35.3042231 38.0892368,39.2630242 36.715071,43.2298496 C43.1714435,39.4026474 46.7193991,33.7539234 47.2847128,26.329416 Z" id="Shape" fill="#555555"></path>
                <rect id="Rectangle-5" x="0" y="0" width="50" height="50"></rect>
            </g>
        </g>
    </g>
</svg>