<?xml version="1.0" encoding="UTF-8"?>
<svg width="51px" height="50px" viewBox="0 0 51 50" version="1.1" xmlns="http://www.w3.org/2000/svg" xmlns:xlink="http://www.w3.org/1999/xlink">
    <!-- Generator: Sketch 48.2 (47327) - http://www.bohemiancoding.com/sketch -->
    <title>xamarin</title>
    <desc>Created with Sketch.</desc>
    <defs></defs>
    <g id="Symbols" stroke="none" stroke-width="1" fill="none" fill-rule="evenodd">
        <g id="xamarin">
            <g>
                <rect id="Rectangle-13" x="1" y="0" width="50" height="50"></rect>
                <path d="M14.427002,3 C13.0766113,3.00292969 11.7547363,3.76953125 11.0750488,4.93886719 L0.502001953,23.3052734 C-0.167333984,24.4777344 -0.167333984,26.0103516 0.502001953,27.1828125 L11.0750488,45.5494141 C11.7547363,46.71875 13.0766113,47.4855469 14.427002,47.4882812 L35.5730957,47.4882812 C36.9234863,47.4853516 38.2453613,46.71875 38.9250488,45.5494141 L49.4980957,27.1828125 C50.1674316,26.0103516 50.1672363,24.4777344 49.4980957,23.3052734 L38.9250488,4.93886719 C38.2453613,3.76933594 36.9234863,3.00273438 35.5730957,3 L14.427002,3 Z M14.6189941,13.7447266 C14.6480957,13.7417969 14.6785645,13.7417969 14.707666,13.7447266 L18.3549316,13.7447266 C18.5196566,13.7500708 18.6701687,13.8394051 18.7537598,13.9814453 L24.9410645,25.0072266 C24.9723145,25.0619141 24.9922363,25.1224609 24.9996582,25.1849609 C25.0074707,25.1224609 25.0273926,25.0619141 25.0586426,25.0072266 L31.2311035,13.9814453 C31.3176315,13.835237 31.4746872,13.7453213 31.6445801,13.7447266 L35.292041,13.7447266 C35.6148926,13.7474609 35.8568848,14.1542969 35.7055176,14.4402344 L29.6658691,25.2441406 L35.7055176,36.0332031 C35.8711426,36.3207031 35.6234863,36.7462891 35.292041,36.7435547 L31.6445801,36.7435547 C31.4716183,36.7399043 31.313853,36.6439185 31.2311035,36.4919922 L25.0586426,25.4660156 C25.0273926,25.4115234 25.0074707,25.3507813 24.9998535,25.2884766 C24.9922516,25.3510369 24.9722666,25.4114568 24.9410645,25.4662109 L18.7535645,36.4919922 C18.6735804,36.6394709 18.5226678,36.7347529 18.355127,36.7435547 L14.7074707,36.7435547 C14.3760254,36.7464844 14.1283691,36.3207031 14.2939941,36.0332031 L20.3336426,25.2441406 L14.2939941,14.4402344 C14.1492676,14.1792969 14.3258301,13.8003906 14.6187988,13.7447266 L14.6189941,13.7447266 Z" id="Shape" fill="#555555" fill-rule="nonzero"></path>
            </g>
        </g>
    </g>
</svg>