<?xml version="1.0" encoding="UTF-8"?>
<svg width="50px" height="50px" viewBox="0 0 50 50" version="1.1" xmlns="http://www.w3.org/2000/svg" xmlns:xlink="http://www.w3.org/1999/xlink">
    <!-- Generator: Sketch 48.2 (47327) - http://www.bohemiancoding.com/sketch -->
    <title>zurb</title>
    <desc>Created with Sketch.</desc>
    <defs></defs>
    <g id="Symbols" stroke="none" stroke-width="1" fill="none" fill-rule="evenodd">
        <g id="zurb">
            <g>
                <rect id="Rectangle-15" x="0" y="0" width="50" height="50"></rect>
                <path d="M41.9998,31.1198 L41.9998,35.6528 C41.8488,36.5598 41.2438,37.1638 40.3368,37.3148 L14.7998,37.3148 C12.8358,37.3148 11.3248,36.7108 9.9648,35.5018 C8.6048,34.2928 7.9998,32.7818 7.9998,31.1198 C7.9998,29.7598 8.4538,28.5508 9.3598,27.4938 C10.2668,26.4358 11.3248,25.6798 12.8358,25.2268 L35.0488,18.8798 L7.9998,18.8798 L7.9998,14.4978 C7.9998,13.5918 8.6048,12.8358 9.5118,12.6848 L35.1998,12.6848 C37.0128,12.6848 38.6748,13.2888 40.0358,14.3468 C41.3958,15.5558 41.9998,17.0668 41.9998,18.7288 C41.9998,20.2398 41.5458,21.4488 40.6398,22.5068 C39.7328,23.5648 38.5238,24.3198 37.1648,24.7738 L14.7998,31.1198 L41.9998,31.1198 Z M43.9998,-0.0002 L5.9998,-0.0002 C2.6868,-0.0002 -0.0002,2.6858 -0.0002,5.9998 L-0.0002,43.9998 C-0.0002,47.3138 2.6868,49.9998 5.9998,49.9998 L43.9998,49.9998 C47.3138,49.9998 49.9998,47.3138 49.9998,43.9998 L49.9998,5.9998 C49.9998,2.6858 47.3138,-0.0002 43.9998,-0.0002 Z" id="Fill-1" fill="#555555"></path>
            </g>
        </g>
    </g>
</svg>